<svg
   xmlns="http://www.w3.org/2000/svg"
   viewBox="0 -47 511.99998 419.0509"
   version="1.1"
   id="svg4"
   width="25"
   height="25">
  <path
      style="fill:#000;stroke-width:0.25"
     d="M 512,8.9644753 C 479.79297,10.44885 480.49609,10.327756 476.85547,10.632443 l 19.07422,-54.472656 c 0,0 -59.53907,21.902344 -74.63282,25.820313 -39.64062,-35.628907 -98.5625,-37.203125 -140.6875,-11.3125 C 246.11328,-8.1253687 227.59766,28.2926 233.77344,70.859011 166.63672,61.542601 110.07031,29.718381 65.410156,-23.930057 L 51.285156,-40.8949 40.730469,-21.512088 C 27.390625,2.9801003 22.960938,30.984006 28.253906,57.339471 c 2.171875,10.8125 5.863282,21.125 10.976563,30.78125 l -12.117188,-4.69531 -1.4375,20.246089 c -1.457031,20.56641 5.390625,44.57422 18.320313,64.21485 3.640625,5.53125 8.328125,11.60547 14.269531,17.59765 l -6.261719,-0.96093 7.640625,23.19922 c 10.042969,30.48046 30.902344,54.0625 57.972659,67.17187 -27.035159,11.47266 -48.875002,18.79297 -84.77344,30.60156 L 0,316.2926 30.335938,332.87854 c 11.566406,6.32422 52.4375,27.44531 92.820312,33.78125 89.76562,14.07812 190.83203,2.61328 258.87109,-58.66407 57.3086,-51.61328 76.11328,-125.03125 72.20703,-201.43359 -0.58984,-11.566409 2.57813,-22.605469 8.92188,-31.078119 C 475.86328,58.519161 511.92187,9.0777563 512,8.9644753 Z M 439.16797,57.515261 c -10.53516,14.0664 -15.8125,32.03124 -14.86719,50.578119 3.94141,77.06641 -17.02734,136.83203 -62.32812,177.62891 -52.91797,47.66015 -138.27344,66.36718 -234.17188,51.32421 -17.36719,-2.72265 -35.316405,-8.82031 -50.171874,-14.91015 30.097654,-10.35547 53.339844,-19.58594 90.875004,-37.35156 l 52.39843,-24.80079 -57.85156,-3.70312 c -27.71094,-1.77344 -50.78516,-15.20313 -64.968749,-37.00781 7.531249,-0.4375 14.792969,-1.65625 22.023439,-3.67188 L 175.28125,200.234 119.64453,186.609 C 92.609375,179.98791 77.199219,163.81213 69.03125,151.40588 63.667969,143.25354 60.164062,134.90197 58.0625,127.20275 c 5.578125,1.4961 12.082031,2.5625 22.570312,3.60157 l 51.496098,5.09375 -40.800785,-31.82813 C 61.929688,81.140251 50.148438,46.691037 58.785156,13.57385 150.53516,108.73791 258.26172,101.58557 269.10547,104.10119 266.71875,80.917601 266.65625,80.862911 266.03125,78.655881 252.14453,29.566037 282.57812,4.6402563 296.30469,-3.7972437 c 28.67187,-17.6210943 74.18359,-20.2773443 105.70703,8.753906 6.80859,6.2656247 16.01562,8.7304687 24.63281,6.5898437 7.73438,-1.9218747 14.08203,-3.9570307 20.29688,-6.1718747 l -12.9375,36.9453117 16.51562,0.01172 c -3.11719,4.179688 -6.85547,9.183594 -11.35156,15.183598 z m 0,0"
     id="path2" />
</svg>
