<?xml version="1.0" encoding="UTF-8" standalone="no"?>
<svg
   xmlns:dc="http://purl.org/dc/elements/1.1/"
   xmlns:cc="http://creativecommons.org/ns#"
   xmlns:rdf="http://www.w3.org/1999/02/22-rdf-syntax-ns#"
   xmlns:svg="http://www.w3.org/2000/svg"
   xmlns="http://www.w3.org/2000/svg"
   width="25"
   height="25"
   viewBox="0 0 144.21555 144.2588"
   version="1.1"
   id="svg41">
  <g
     id="layer1"
     transform="translate(-38.261274,-49.578911)">
    <path
       style="fill:#FFF;stroke-width:0.264583"
       d="m 55.833383,193.64657 c -2.040475,-0.34736 -4.079711,-1.07582 -6.565442,-2.34531 -1.727219,-0.88211 -2.857315,-1.75261 -4.809085,-3.70438 -2.816987,-2.81699 -4.333002,-5.33172 -5.536325,-9.18353 l -0.661257,-2.11666 v -54.61 -54.610002 l 0.661257,-2.116667 c 1.203323,-3.851809 2.719338,-6.366539 5.536325,-9.183528 2.816987,-2.816987 5.331716,-4.333002 9.183528,-5.536325 l 2.116667,-0.661257 h 54.609999 54.61 l 2.11666,0.661257 c 3.85181,1.203323 6.36654,2.719338 9.18353,5.536325 2.81699,2.816989 4.333,5.331719 5.53633,9.183528 l 0.66125,2.116667 v 54.610002 54.61 l -0.66125,2.11666 c -1.20333,3.85181 -2.71934,6.36654 -5.53633,9.18353 -2.75223,2.75223 -5.17889,4.23746 -9.04242,5.53441 l -1.97555,0.66317 -54.04555,0.0398 c -29.72506,0.0219 -54.647108,-0.0626 -55.382337,-0.18773 z m 107.906477,-8.46573 c 5.06858,-0.96124 9.16211,-5.05476 10.12334,-10.12334 0.39772,-2.09714 0.39772,-104.644488 0,-106.741623 -0.96123,-5.068586 -5.05476,-9.162108 -10.12334,-10.123344 -2.09714,-0.397714 -104.644485,-0.397714 -106.741622,0 -5.068584,0.961236 -9.162106,5.054758 -10.123342,10.123344 -0.397714,2.097135 -0.397714,104.644483 0,106.741623 0.93904,4.95154 5.057441,9.15464 9.902504,10.10616 1.825557,0.35851 105.07515,0.3751 106.96246,0.0172 z m -56.61637,-25.55675 c -5.81352,-0.81216 -8.394483,-1.49428 -12.338439,-3.26091 -9.713362,-4.35095 -17.649335,-13.30949 -20.781131,-23.45884 -2.153005,-6.97734 -2.153005,-15.45797 0,-22.43531 3.120895,-10.11402 11.074871,-19.113329 20.701793,-23.422489 5.423327,-2.427566 9.512857,-3.285334 15.663337,-3.285334 6.15048,0 10.24001,0.857768 15.66333,3.285334 9.62693,4.30916 17.5809,13.308469 20.7018,23.422489 2.153,6.97734 2.153,15.45797 0,22.43531 -4.09793,13.28034 -15.62104,23.55067 -29.36593,26.17329 -2.31152,0.44105 -8.59872,0.77642 -10.24476,0.54646 z m 9.59556,-8.98759 c 11.14414,-2.50269 20.2332,-11.66429 22.64202,-22.82274 0.67944,-3.14738 0.67944,-9.10677 0,-12.25415 -2.4279,-11.24681 -11.61814,-20.437044 -22.86495,-22.864948 -3.14738,-0.679439 -9.10677,-0.679439 -12.25415,0 -11.246804,2.427904 -20.437042,11.618138 -22.864946,22.864948 -0.679439,3.14738 -0.679439,9.10677 0,12.25415 2.415847,11.19096 11.904199,20.70395 22.723836,22.78284 1.19678,0.22995 2.42996,0.47993 2.74041,0.55551 1.12424,0.27371 7.94945,-0.0826 9.87778,-0.51561 z m 33.4739,-58.888398 c -6.41042,-1.258935 -11.0257,-7.858416 -9.96639,-14.251149 0.91742,-5.536485 5.08293,-9.701995 10.61942,-10.619422 8.16074,-1.35228 15.6845,6.17148 14.33222,14.332225 -1.1916,7.191078 -7.92341,11.92521 -14.98525,10.538346 z m 4.97858,-8.95763 c 1.18753,-0.845598 1.86062,-2.386174 1.69285,-3.874627 -0.26743,-2.372612 -2.26225,-3.987928 -4.59951,-3.724485 -5.43807,0.612947 -4.69933,8.750922 0.75423,8.308677 0.73286,-0.05943 1.67607,-0.370364 2.15243,-0.709565 z"
       id="path22" />
  </g>
</svg>
